# xmcd
#
# Track frame offsets: 
#        183
#        15108
#        36770
#        47158
#        80590
#        96858
#        116395
#        141708
#        154903
#        174738
#        205420
#        238808
#        253970
#        271158
#        291633
#
# Disc length: 4421 seconds
#
# Revision: 0
# Processed by: cddbd v1.4PL0 Copyright (c) Steve Scherf et al.
# Submitted via: ExactAudioCopy v0.90b4
#
DISCID=e011430f
DTITLE=U.P. Wilson with Paul Orta and the Kingpins - Attack of the ato
DTITLE=mic guitar
DYEAR=1992
DGENRE=
TTITLE0=Wailing at the weavers
TTITLE1=Boy scout plan
TTITLE2=Enter the tornado
TTITLE3=Hold on baby
TTITLE4=Johnny B. Goode
TTITLE5=Hideaway
TTITLE6=You got me runnin'
TTITLE7=Armadillo strut
TTITLE8=Pretty baby
TTITLE9=Austin shuffle
TTITLE10=Alibi blues
TTITLE11=Bo Diddley
TTITLE12=Boogie chillun
TTITLE13=The twister
TTITLE14=Cold, cold feeling
EXTD=
EXTT0=
EXTT1=
EXTT2=
EXTT3=
EXTT4=
EXTT5=
EXTT6=
EXTT7=
EXTT8=
EXTT9=
EXTT10=
EXTT11=
EXTT12=
EXTT13=
EXTT14=
PLAYORDER=
